<svg xmlns="http://www.w3.org/2000/svg" width="1180" height="250" viewBox="0 0 1180 250">
  <defs><marker id="a" markerWidth="10" markerHeight="10" refX="8" refY="3" orient="auto" markerUnits="strokeWidth"><path d="M0,0 L0,6 L9,3 z" fill="#455a64"/></marker><style>.box{fill:#fff;stroke:#90a4ae;stroke-width:2;rx:8}.hot{fill:#eaf4ff;stroke:#1565c0;stroke-width:2.6;rx:8}.sub{fill:#fff;stroke:#b0bec5;stroke-width:2;stroke-dasharray:7 5;rx:8}.t{font:700 15px "Microsoft YaHei",Arial,sans-serif;fill:#111;text-anchor:middle}.s{font:12px "Microsoft YaHei",Arial,sans-serif;fill:#455a64;text-anchor:middle}.l{stroke:#455a64;stroke-width:2;fill:none;marker-end:url(#a)}.name{font:700 14px "Microsoft YaHei",Arial,sans-serif;fill:#455a64}</style></defs>
  <text x="35" y="72" class="name">main</text><rect x="90" y="45" width="130" height="64" class="box"/><text x="155" y="72" class="t">Decode</text><text x="155" y="94" class="s">PostGDCmd</text><path d="M220 77 H285" class="l"/><rect x="285" y="45" width="130" height="64" class="box"/><text x="350" y="72" class="t">Alloc</text><text x="350" y="94" class="s">ROB/BAT</text><path d="M415 77 H480" class="l"/><rect x="480" y="45" width="130" height="64" class="box"/><text x="545" y="72" class="t">Issue</text><text x="545" y="94" class="s">check + fire</text><path d="M610 77 H675" class="l"/><rect x="675" y="45" width="130" height="64" class="hot"/><text x="740" y="72" class="t">Complete</text><text x="740" y="94" class="s">writeback</text><path d="M805 77 H870" class="l"/><rect x="870" y="45" width="130" height="64" class="box"/><text x="935" y="72" class="t">Commit</text><text x="935" y="94" class="s">retire</text>
  <text x="35" y="174" class="name">sub</text><rect x="480" y="148" width="130" height="64" class="sub"/><text x="545" y="175" class="t">Ball split</text><text x="545" y="197" class="s">SubRobRow</text><path d="M610 180 H675" class="l"/><rect x="675" y="148" width="130" height="64" class="sub"/><text x="740" y="175" class="t">SubROB issue</text><text x="740" y="197" class="s">slot</text><path d="M805 180 H870" class="l"/><rect x="870" y="148" width="130" height="64" class="sub"/><text x="935" y="175" class="t">Sub complete</text><text x="935" y="197" class="s">masterComplete</text><path d="M545 109 V148" class="l"/>
</svg>
